<?xml version="1.0" standalone="no"?>
<!DOCTYPE svg PUBLIC "-//W3C//DTD SVG 20010904//EN"
 "http://www.w3.org/TR/2001/REC-SVG-20010904/DTD/svg10.dtd">
<svg version="1.0" xmlns="http://www.w3.org/2000/svg"
 width="228.000000pt" height="228.000000pt" viewBox="0 0 228.000000 228.000000"
 preserveAspectRatio="xMidYMid meet">

<g transform="translate(0.000000,228.000000) scale(0.100000,-0.100000)"
fill="#000000" stroke="none">
<path d="M1948 1754 c-5 -4 -8 -22 -8 -41 0 -32 1 -33 39 -33 28 0 49 -7 68
-24 l28 -24 5 -219 c5 -216 11 -255 42 -266 9 -3 4 -11 -12 -25 -25 -20 -25
-21 -30 -239 -3 -120 -9 -225 -13 -234 -11 -22 -45 -38 -87 -41 -33 -3 -35 -6
-38 -40 l-3 -38 53 0 c71 0 137 33 160 80 15 30 18 65 18 240 0 234 3 247 68
252 35 3 37 5 40 41 l3 37 -40 0 c-68 0 -71 12 -71 253 0 232 -7 264 -68 300
-33 19 -142 34 -154 21z"/>
<path d="M170 1728 c-74 -38 -80 -58 -80 -298 0 -229 -5 -250 -61 -250 -27 0
-29 -2 -29 -40 0 -38 2 -40 29 -40 56 0 61 -20 61 -253 0 -185 2 -212 19 -245
26 -51 68 -73 144 -75 l62 -2 3 38 3 37 -40 0 c-28 0 -48 7 -68 24 l-28 24 -5
219 c-5 216 -11 255 -42 266 -9 3 -4 11 12 25 25 20 25 21 30 239 3 120 9 225
13 234 11 22 45 38 87 41 33 3 35 6 38 41 l3 37 -53 0 c-36 0 -69 -8 -98 -22z"/>
<path d="M571 1460 c-111 -26 -182 -174 -166 -348 17 -194 115 -288 282 -268
109 13 144 42 108 93 l-15 22 -43 -19 c-84 -39 -177 -17 -211 49 -38 73 -39
258 -2 330 34 65 120 88 209 57 36 -13 39 -13 53 10 9 12 14 31 12 41 -6 32
-145 52 -227 33z"/>
<path d="M1450 1155 l0 -305 103 0 c123 0 166 11 214 53 60 53 79 129 49 201
-13 30 -52 70 -79 79 -6 2 5 18 25 36 61 53 61 136 0 193 -37 36 -90 48 -209
48 l-103 0 0 -305z m224 215 c32 -12 51 -50 42 -84 -9 -36 -54 -56 -126 -56
l-60 0 0 75 0 75 59 0 c33 0 71 -4 85 -10z m23 -246 c34 -26 49 -73 37 -115
-14 -50 -54 -73 -134 -77 l-70 -4 0 112 0 112 70 -4 c50 -3 77 -9 97 -24z"/>
<path d="M860 695 l0 -35 265 0 265 0 0 35 0 35 -265 0 -265 0 0 -35z"/>
</g>
</svg>
