<svg width="143" height="21" viewBox="0 0 143 21" fill="none" xmlns="http://www.w3.org/2000/svg">
<path d="M6.536 18.432C4.664 18.432 3.2 17.912 2.144 16.872C1.104 15.816 0.584 14.352 0.584 12.48V6.744C0.584 4.872 1.104 3.416 2.144 2.376C3.2 1.32 4.664 0.792 6.536 0.792C7.448 0.792 8.312 0.992 9.128 1.392C9.944 1.792 10.632 2.352 11.192 3.072C11.304 3.2 11.352 3.344 11.336 3.504C11.32 3.664 11.248 3.8 11.12 3.912C10.976 4.008 10.816 4.048 10.64 4.032C10.48 4 10.352 3.928 10.256 3.816C9.808 3.24 9.256 2.792 8.6 2.472C7.944 2.152 7.256 1.992 6.536 1.992C5.048 1.992 3.88 2.416 3.032 3.264C2.2 4.096 1.784 5.256 1.784 6.744V12.48C1.784 13.968 2.2 15.136 3.032 15.984C3.88 16.816 5.048 17.232 6.536 17.232C7.256 17.232 7.944 17.08 8.6 16.776C9.256 16.456 9.808 16.008 10.256 15.432C10.352 15.304 10.48 15.232 10.64 15.216C10.816 15.184 10.976 15.224 11.12 15.336C11.248 15.432 11.32 15.568 11.336 15.744C11.352 15.904 11.304 16.048 11.192 16.176C10.632 16.896 9.944 17.456 9.128 17.856C8.312 18.24 7.448 18.432 6.536 18.432ZM25.7223 18.312C25.5623 18.312 25.4183 18.256 25.2903 18.144C25.1783 18.032 25.1223 17.896 25.1223 17.736V2.376H19.9623L17.4183 15.192C17.2103 16.2 16.8263 16.92 16.2663 17.352C15.7223 17.784 14.9383 18 13.9143 18H13.1943C13.0183 18 12.8663 17.944 12.7383 17.832C12.6263 17.704 12.5703 17.56 12.5703 17.4C12.5703 17.224 12.6263 17.08 12.7383 16.968C12.8663 16.856 13.0183 16.8 13.1943 16.8H13.9143C14.6503 16.8 15.1863 16.664 15.5223 16.392C15.8743 16.12 16.1143 15.648 16.2423 14.976L18.8823 1.656C18.9143 1.528 18.9783 1.416 19.0743 1.32C19.1863 1.224 19.3223 1.176 19.4823 1.176H25.7223C25.8983 1.176 26.0423 1.24 26.1543 1.368C26.2663 1.48 26.3223 1.616 26.3223 1.776V17.736C26.3223 17.896 26.2663 18.032 26.1543 18.144C26.0423 18.256 25.8983 18.312 25.7223 18.312ZM29.4523 18.192C29.2923 18.144 29.1803 18.048 29.1163 17.904C29.0523 17.744 29.0523 17.584 29.1163 17.424L35.1403 1.176C35.2523 0.92 35.4443 0.792 35.7163 0.792C35.9883 0.792 36.1803 0.92 36.2923 1.176L42.3403 17.424C42.4043 17.584 42.3963 17.744 42.3163 17.904C42.2523 18.048 42.1403 18.144 41.9803 18.192C41.8363 18.256 41.6843 18.248 41.5243 18.168C41.3803 18.104 41.2763 17.992 41.2123 17.832L35.7163 3.12L32.3803 12.024H36.9163C37.0763 12.024 37.2123 12.088 37.3243 12.216C37.4363 12.328 37.4923 12.472 37.4923 12.648C37.4923 12.808 37.4363 12.944 37.3243 13.056C37.2123 13.168 37.0763 13.224 36.9163 13.224H31.9243L30.2203 17.832C30.1563 17.992 30.0523 18.104 29.9083 18.168C29.7643 18.248 29.6123 18.256 29.4523 18.192ZM45.6734 18C45.5134 18 45.3694 17.944 45.2414 17.832C45.1294 17.704 45.0734 17.56 45.0734 17.4V1.8C45.0734 1.624 45.1294 1.48 45.2414 1.368C45.3694 1.256 45.5134 1.2 45.6734 1.2H51.0014C52.3614 1.2 53.4574 1.592 54.2894 2.376C55.1374 3.16 55.5614 4.192 55.5614 5.472C55.5614 6.176 55.3694 6.888 54.9854 7.608C54.6174 8.328 53.9854 8.912 53.0894 9.36C54.9454 10.032 55.8734 11.408 55.8734 13.488C55.8734 14.88 55.4494 15.984 54.6014 16.8C53.7534 17.6 52.5934 18 51.1214 18H45.6734ZM46.2734 16.824H51.1214C52.2734 16.824 53.1534 16.536 53.7614 15.96C54.3694 15.384 54.6734 14.56 54.6734 13.488C54.6734 13.072 54.6174 12.664 54.5054 12.264C54.4094 11.864 54.1934 11.496 53.8574 11.16C53.5374 10.808 53.0494 10.536 52.3934 10.344C51.7534 10.136 50.8894 10.032 49.8014 10.032H48.1934C48.0174 10.032 47.8734 9.976 47.7614 9.864C47.6494 9.736 47.5934 9.592 47.5934 9.432C47.5934 9.256 47.6494 9.112 47.7614 9C47.8734 8.888 48.0174 8.832 48.1934 8.832H49.8014C50.9214 8.832 51.8094 8.664 52.4654 8.328C53.1374 7.992 53.6174 7.568 53.9054 7.056C54.2094 6.544 54.3614 6.016 54.3614 5.472C54.3614 4.528 54.0574 3.784 53.4494 3.24C52.8414 2.68 52.0254 2.4 51.0014 2.4H46.2734V16.824ZM58.5382 18.192C58.3782 18.144 58.2662 18.048 58.2022 17.904C58.1382 17.744 58.1382 17.584 58.2022 17.424L64.2262 1.176C64.3382 0.92 64.5302 0.792 64.8022 0.792C65.0742 0.792 65.2662 0.92 65.3782 1.176L71.4262 17.424C71.4902 17.584 71.4822 17.744 71.4022 17.904C71.3382 18.048 71.2262 18.144 71.0662 18.192C70.9222 18.256 70.7702 18.248 70.6102 18.168C70.4662 18.104 70.3622 17.992 70.2982 17.832L64.8022 3.12L61.4662 12.024H66.0022C66.1622 12.024 66.2982 12.088 66.4102 12.216C66.5222 12.328 66.5782 12.472 66.5782 12.648C66.5782 12.808 66.5222 12.944 66.4102 13.056C66.2982 13.168 66.1622 13.224 66.0022 13.224H61.0102L59.3062 17.832C59.2422 17.992 59.1382 18.104 58.9942 18.168C58.8502 18.248 58.6982 18.256 58.5382 18.192ZM81.2521 18.312C81.0761 18.312 80.9241 18.256 80.7961 18.144C80.6841 18.032 80.6281 17.896 80.6281 17.736V1.464C80.6281 1.288 80.6841 1.144 80.7961 1.032C80.9241 0.903999 81.0761 0.839999 81.2521 0.839999C81.4281 0.839999 81.5641 0.903999 81.6601 1.032C81.7721 1.144 81.8281 1.288 81.8281 1.464V9.144H83.2681C84.2441 9.144 85.1241 8.92 85.9081 8.472C86.6921 8.008 87.3801 7.4 87.9721 6.648C88.5641 5.896 89.0521 5.056 89.4361 4.128C89.8201 3.2 90.0921 2.272 90.2521 1.344C90.2841 1.184 90.3641 1.056 90.4921 0.959999C90.6361 0.863999 90.7881 0.831999 90.9481 0.863999C91.1081 0.895999 91.2361 0.975999 91.3321 1.104C91.4281 1.232 91.4601 1.384 91.4281 1.56C91.2361 2.616 90.9161 3.672 90.4681 4.728C90.0361 5.768 89.4761 6.712 88.7881 7.56C88.1161 8.408 87.3241 9.088 86.4121 9.6L91.8601 17.4C91.9401 17.528 91.9641 17.68 91.9321 17.856C91.9001 18.016 91.8041 18.136 91.6441 18.216C91.5161 18.312 91.3721 18.336 91.2121 18.288C91.0521 18.256 90.9241 18.176 90.8281 18.048L85.2601 10.056C84.9561 10.136 84.6361 10.208 84.3001 10.272C83.9801 10.32 83.6361 10.344 83.2681 10.344H81.8281V17.736C81.8281 17.896 81.7721 18.032 81.6601 18.144C81.5641 18.256 81.4281 18.312 81.2521 18.312ZM100.497 18.312C99.2969 18.312 98.2489 18.064 97.3529 17.568C96.4729 17.072 95.7849 16.376 95.2889 15.48C94.7929 14.584 94.5449 13.544 94.5449 12.36V6.792C94.5449 5.592 94.7929 4.552 95.2889 3.672C95.7849 2.776 96.4729 2.08 97.3529 1.584C98.2489 1.088 99.2969 0.839999 100.497 0.839999C101.697 0.839999 102.737 1.088 103.617 1.584C104.513 2.08 105.209 2.776 105.705 3.672C106.201 4.552 106.449 5.592 106.449 6.792V12.36C106.449 13.544 106.201 14.584 105.705 15.48C105.209 16.376 104.513 17.072 103.617 17.568C102.737 18.064 101.697 18.312 100.497 18.312ZM100.497 17.112C101.457 17.112 102.289 16.92 102.993 16.536C103.713 16.136 104.265 15.576 104.649 14.856C105.049 14.136 105.249 13.304 105.249 12.36V6.792C105.249 5.832 105.049 5 104.649 4.296C104.265 3.576 103.713 3.024 102.993 2.64C102.289 2.24 101.457 2.04 100.497 2.04C99.5369 2.04 98.6969 2.24 97.9769 2.64C97.2729 3.024 96.7209 3.576 96.3209 4.296C95.9369 5 95.7449 5.832 95.7449 6.792V12.36C95.7449 13.304 95.9369 14.136 96.3209 14.856C96.7209 15.576 97.2729 16.136 97.9769 16.536C98.6969 16.92 99.5369 17.112 100.497 17.112ZM108.655 20.472C108.495 20.472 108.351 20.408 108.223 20.28C108.095 20.168 108.031 20.032 108.031 19.872V17.4C108.031 17.224 108.095 17.08 108.223 16.968C108.351 16.856 108.495 16.8 108.655 16.8H109.783L112.999 1.632C113.031 1.504 113.103 1.392 113.215 1.296C113.327 1.2 113.447 1.152 113.575 1.152H119.815C119.991 1.152 120.135 1.216 120.247 1.344C120.375 1.456 120.439 1.6 120.439 1.776V16.8H121.423C121.599 16.8 121.743 16.856 121.855 16.968C121.967 17.08 122.023 17.224 122.023 17.4V19.872C122.023 20.032 121.967 20.168 121.855 20.28C121.743 20.408 121.599 20.472 121.423 20.472C121.263 20.472 121.119 20.408 120.991 20.28C120.879 20.168 120.823 20.032 120.823 19.872V18H109.231V19.872C109.231 20.032 109.175 20.168 109.063 20.28C108.951 20.408 108.815 20.472 108.655 20.472ZM111.007 16.8H119.239V2.352H114.079L111.007 16.8ZM125.364 17.976C125.204 17.976 125.06 17.92 124.932 17.808C124.82 17.696 124.764 17.56 124.764 17.4C124.764 17.224 124.82 17.08 124.932 16.968C125.06 16.856 125.204 16.8 125.364 16.8H127.068C128.06 16.8 128.812 16.656 129.324 16.368C129.852 16.064 130.3 15.52 130.668 14.736L125.148 1.68C125.084 1.536 125.084 1.392 125.148 1.248C125.212 1.088 125.316 0.976 125.46 0.912C125.62 0.832 125.772 0.823999 125.916 0.887999C126.076 0.951999 126.188 1.064 126.252 1.224L131.34 13.2L136.428 1.224C136.476 1.064 136.572 0.951999 136.716 0.887999C136.876 0.823999 137.036 0.832 137.196 0.912C137.356 0.976 137.468 1.088 137.532 1.248C137.596 1.392 137.588 1.536 137.508 1.68L131.892 15C131.412 16.12 130.804 16.896 130.068 17.328C129.348 17.76 128.348 17.976 127.068 17.976H125.364ZM141.573 13.824C141.413 13.824 141.277 13.76 141.165 13.632C141.053 13.504 140.997 13.36 140.997 13.2V1.464C140.997 1.288 141.053 1.144 141.165 1.032C141.277 0.903999 141.413 0.839999 141.573 0.839999C141.749 0.839999 141.893 0.903999 142.005 1.032C142.133 1.144 142.197 1.288 142.197 1.464V13.2C142.197 13.36 142.133 13.504 142.005 13.632C141.893 13.76 141.749 13.824 141.573 13.824ZM141.573 18.336C141.317 18.336 141.109 18.264 140.949 18.12C140.805 17.976 140.733 17.824 140.733 17.664V16.416C140.733 16.24 140.805 16.088 140.949 15.96C141.109 15.816 141.317 15.744 141.573 15.744C141.845 15.744 142.053 15.816 142.197 15.96C142.341 16.088 142.413 16.24 142.413 16.416V17.664C142.413 17.824 142.341 17.976 142.197 18.12C142.053 18.264 141.845 18.336 141.573 18.336Z" fill="black"/>
</svg>
